<svg xmlns="http://www.w3.org/2000/svg" width="900" height="500" viewBox="0 0 900 500">
  <!-- Background -->
  <rect width="900" height="500" fill="#111827"/>

  <!-- Camera view area -->
  <rect x="20" y="20" width="540" height="380" rx="8" fill="#1f2937" stroke="#374151" stroke-width="1"/>
  <text x="36" y="44" font-family="-apple-system,sans-serif" font-size="13" fill="#f9fafb" font-weight="600">📹 Real-time Face Recognition</text>
  <rect x="20" y="52" width="540" height="1" fill="#374151"/>

  <!-- Video frame -->
  <rect x="32" y="62" width="516" height="326" rx="4" fill="#0f172a"/>

  <!-- Background scene (office/door) -->
  <rect x="32" y="62" width="516" height="326" rx="4" fill="#1c2333"/>
  <!-- Wall -->
  <rect x="32" y="62" width="516" height="200" fill="#1e2a3a"/>
  <!-- Floor -->
  <rect x="32" y="262" width="516" height="126" fill="#16202e"/>

  <!-- Door frame -->
  <rect x="180" y="100" width="100" height="188" rx="2" fill="#243040" stroke="#2d3f55" stroke-width="2"/>
  <rect x="194" y="114" width="72" height="160" rx="1" fill="#1a2535"/>
  <circle cx="258" cy="198" r="4" fill="#4a5568"/>

  <!-- Person 1 - recognized (green box) -->
  <ellipse cx="340" cy="155" rx="30" ry="34" fill="#2a3a50"/>
  <rect x="306" y="189" width="68" height="80" rx="12" fill="#2a3a50"/>
  <!-- Face features -->
  <ellipse cx="328" cy="148" rx="5" ry="5" fill="#3d5068"/>
  <ellipse cx="352" cy="148" rx="5" ry="5" fill="#3d5068"/>
  <path d="M 325 165 Q 340 172 355 165" fill="none" stroke="#3d5068" stroke-width="2"/>

  <!-- Detection box - Person 1 (green - recognized) -->
  <rect x="300" y="115" width="80" height="100" fill="none" stroke="#22c55e" stroke-width="2"/>
  <!-- Corner brackets -->
  <polyline points="300,125 300,115 310,115" fill="none" stroke="#22c55e" stroke-width="2.5"/>
  <polyline points="370,115 380,115 380,125" fill="none" stroke="#22c55e" stroke-width="2.5"/>
  <polyline points="300,205 300,215 310,215" fill="none" stroke="#22c55e" stroke-width="2.5"/>
  <polyline points="370,215 380,215 380,205" fill="none" stroke="#22c55e" stroke-width="2.5"/>
  <!-- Name label -->
  <rect x="294" y="100" width="110" height="18" rx="3" fill="#22c55e"/>
  <text x="349" y="113" font-family="monospace" font-size="10" fill="#0f172a" text-anchor="middle" font-weight="700">Alice Johnson</text>
  <rect x="294" y="216" width="110" height="14" rx="2" fill="#166534" opacity="0.9"/>
  <text x="349" y="226" font-family="monospace" font-size="8" fill="#bbf7d0" text-anchor="middle">confidence: 96.8%</text>

  <!-- Person 2 - unknown (red box) -->
  <ellipse cx="490" cy="175" rx="26" ry="28" fill="#2a3a50"/>
  <rect x="460" y="203" width="60" height="70" rx="10" fill="#2a3a50"/>
  <!-- Face features -->
  <ellipse cx="480" cy="168" rx="4" ry="4" fill="#3d5068"/>
  <ellipse cx="500" cy="168" rx="4" ry="4" fill="#3d5068"/>
  <path d="M 479 183 Q 490 178 501 183" fill="none" stroke="#3d5068" stroke-width="1.5"/>

  <!-- Detection box - Person 2 (red - unknown) -->
  <rect x="454" y="142" width="74" height="92" fill="none" stroke="#ef4444" stroke-width="2"/>
  <polyline points="454,152 454,142 464,142" fill="none" stroke="#ef4444" stroke-width="2.5"/>
  <polyline points="518,142 528,142 528,152" fill="none" stroke="#ef4444" stroke-width="2.5"/>
  <polyline points="454,224 454,234 464,234" fill="none" stroke="#ef4444" stroke-width="2.5"/>
  <polyline points="518,234 528,234 528,224" fill="none" stroke="#ef4444" stroke-width="2.5"/>
  <rect x="448" y="126" width="88" height="18" rx="3" fill="#ef4444"/>
  <text x="492" y="139" font-family="monospace" font-size="10" fill="#fff" text-anchor="middle" font-weight="700">⚠ UNKNOWN</text>
  <rect x="448" y="236" width="88" height="14" rx="2" fill="#7f1d1d" opacity="0.9"/>
  <text x="492" y="246" font-family="monospace" font-size="8" fill="#fecaca" text-anchor="middle">ALERT TRIGGERED</text>

  <!-- HUD elements -->
  <rect x="36" y="66" width="100" height="16" rx="2" fill="#1f2937" opacity="0.8"/>
  <circle cx="46" cy="74" r="4" fill="#ef4444"/>
  <text x="55" y="78" font-family="monospace" font-size="9" fill="#ef4444">REC  09:42:18</text>

  <rect x="450" y="66" width="94" height="16" rx="2" fill="#1f2937" opacity="0.8"/>
  <text x="497" y="78" font-family="monospace" font-size="9" fill="#6b7280" text-anchor="middle">1920×1080  30fps</text>

  <rect x="36" y="364" width="516" height="20" rx="0" fill="#0f172a" opacity="0.7"/>
  <text x="44" y="378" font-family="monospace" font-size="9" fill="#22c55e">FACES DETECTED: 2 | RECOGNIZED: 1 | UNKNOWN: 1 | MODEL: HOG | TOLERANCE: 0.6</text>

  <!-- Side panel -->
  <rect x="572" y="20" width="308" height="380" rx="8" fill="#1f2937" stroke="#374151" stroke-width="1"/>
  <text x="588" y="44" font-family="-apple-system,sans-serif" font-size="13" fill="#f9fafb" font-weight="600">Recognition Details</text>
  <rect x="572" y="52" width="308" height="1" fill="#374151"/>

  <!-- Person 1 card -->
  <rect x="584" y="62" width="284" height="140" rx="6" fill="#0f172a" stroke="#22c55e" stroke-width="1.5"/>
  <rect x="584" y="62" width="284" height="26" rx="6" fill="#166534"/>
  <text x="596" y="79" font-family="-apple-system,sans-serif" font-size="12" fill="#bbf7d0" font-weight="600">✓ RECOGNIZED</text>

  <rect x="598" y="98" width="50" height="60" rx="4" fill="#2a3a50"/>
  <ellipse cx="623" cy="116" rx="14" ry="15" fill="#3d5068"/>
  <rect x="607" y="131" width="32" height="27" rx="6" fill="#3d5068"/>

  <text x="660" y="106" font-family="-apple-system,sans-serif" font-size="14" fill="#f9fafb" font-weight="700">Alice Johnson</text>
  <text x="660" y="122" font-family="-apple-system,sans-serif" font-size="11" fill="#64748b">Employee · Engineering</text>
  <text x="660" y="138" font-family="-apple-system,sans-serif" font-size="11" fill="#64748b">Badge: EMP-0042</text>
  <text x="660" y="154" font-family="-apple-system,sans-serif" font-size="11" fill="#22c55e">Access Level: 3</text>
  <text x="660" y="170" font-family="-apple-system,sans-serif" font-size="11" fill="#22c55e">Status: AUTHORIZED</text>

  <!-- Confidence bar -->
  <text x="598" y="192" font-family="-apple-system,sans-serif" font-size="10" fill="#64748b">Confidence</text>
  <rect x="648" y="182" width="200" height="10" rx="5" fill="#374151"/>
  <rect x="648" y="182" width="194" height="10" rx="5" fill="#22c55e"/>
  <text x="852" y="192" font-family="-apple-system,sans-serif" font-size="10" fill="#22c55e">96.8%</text>

  <!-- Person 2 card -->
  <rect x="584" y="212" width="284" height="100" rx="6" fill="#0f172a" stroke="#ef4444" stroke-width="1.5"/>
  <rect x="584" y="212" width="284" height="26" rx="6" fill="#7f1d1d"/>
  <text x="596" y="229" font-family="-apple-system,sans-serif" font-size="12" fill="#fecaca" font-weight="600">⚠ UNKNOWN INDIVIDUAL</text>

  <rect x="598" y="248" width="50" height="52" rx="4" fill="#2a3a50"/>
  <ellipse cx="623" cy="263" rx="13" ry="14" fill="#3d5068"/>
  <rect x="608" y="277" width="30" height="23" rx="5" fill="#3d5068"/>

  <text x="660" y="256" font-family="-apple-system,sans-serif" font-size="13" fill="#f9fafb" font-weight="700">Unknown</text>
  <text x="660" y="272" font-family="-apple-system,sans-serif" font-size="11" fill="#ef4444">Not in database</text>
  <text x="660" y="288" font-family="-apple-system,sans-serif" font-size="11" fill="#ef4444">Alert sent to admin</text>
  <text x="660" y="304" font-family="-apple-system,sans-serif" font-size="11" fill="#ef4444">Status: DENIED</text>

  <!-- System Info -->
  <rect x="584" y="324" width="284" height="64" rx="6" fill="#0f172a"/>
  <text x="596" y="342" font-family="-apple-system,sans-serif" font-size="11" fill="#6b7280">Processing time:</text>
  <text x="740" y="342" font-family="monospace" font-size="11" fill="#38bdf8">47ms</text>
  <text x="596" y="358" font-family="-apple-system,sans-serif" font-size="11" fill="#6b7280">Known faces in DB:</text>
  <text x="740" y="358" font-family="monospace" font-size="11" fill="#38bdf8">48 people</text>
  <text x="596" y="374" font-family="-apple-system,sans-serif" font-size="11" fill="#6b7280">Detection model:</text>
  <text x="740" y="374" font-family="monospace" font-size="11" fill="#38bdf8">HOG (fast)</text>

  <!-- Bottom status bar -->
  <rect x="20" y="412" width="860" height="68" rx="8" fill="#1f2937" stroke="#374151" stroke-width="1"/>
  <text x="36" y="434" font-family="-apple-system,sans-serif" font-size="13" fill="#f9fafb" font-weight="600">System Status</text>

  <circle cx="44" cy="456" r="5" fill="#22c55e"/>
  <text x="56" y="460" font-family="-apple-system,sans-serif" font-size="11" fill="#9ca3af">Camera: Active</text>

  <circle cx="194" cy="456" r="5" fill="#22c55e"/>
  <text x="206" y="460" font-family="-apple-system,sans-serif" font-size="11" fill="#9ca3af">DB: Connected</text>

  <circle cx="344" cy="456" r="5" fill="#22c55e"/>
  <text x="356" y="460" font-family="-apple-system,sans-serif" font-size="11" fill="#9ca3af">API: Running</text>

  <circle cx="494" cy="456" r="5" fill="#f59e0b"/>
  <text x="506" y="460" font-family="-apple-system,sans-serif" font-size="11" fill="#9ca3af">Blockchain: Syncing</text>

  <circle cx="664" cy="456" r="5" fill="#22c55e"/>
  <text x="676" y="460" font-family="-apple-system,sans-serif" font-size="11" fill="#9ca3af">MQTT: Connected</text>

  <circle cx="804" cy="456" r="5" fill="#22c55e"/>
  <text x="816" y="460" font-family="-apple-system,sans-serif" font-size="11" fill="#9ca3af">GPU: Active</text>
</svg>
